<svg xmlns="http://www.w3.org/2000/svg" viewBox="0 0 64 64">
  <g fill="#f672a2">
    <circle cx="32" cy="11" r="11" />
    <circle cx="47" cy="17" r="11" />
    <circle cx="53" cy="32" r="11" />
    <circle cx="47" cy="47" r="11" />
    <circle cx="32" cy="53" r="11" />
    <circle cx="17" cy="47" r="11" />
    <circle cx="11" cy="32" r="11" />
    <circle cx="17" cy="17" r="11" />
  </g>
  <circle cx="32" cy="32" r="13" fill="#f9c9de" />
  <circle cx="25.5" cy="28" r="2.8" fill="#f08bae" />
  <circle cx="39" cy="38.5" r="3" fill="#f08bae" />
  <path
    d="M22.5 34.5c2.7 4 6.4 6 11 6 3.2 0 5.9-.9 8.2-2.7"
    fill="none"
    stroke="#20254f"
    stroke-linecap="round"
    stroke-width="2.2"
  />
  <path
    d="M24.2 24.8c1.8-1.6 4.3-2.2 7.1-1.6"
    fill="none"
    stroke="#20254f"
    stroke-linecap="round"
    stroke-width="2"
  />
  <path
    d="M36.6 28.8c2.1 0 3.8 1.7 3.8 3.8"
    fill="none"
    stroke="#20254f"
    stroke-linecap="round"
    stroke-width="2.2"
  />
  <ellipse
    cx="28.5"
    cy="24.8"
    rx="3.2"
    ry="4.2"
    fill="#ffffff"
    transform="rotate(-20 28.5 24.8)"
  />
  <ellipse
    cx="29.3"
    cy="24.7"
    rx="2.2"
    ry="3"
    fill="#202020"
    transform="rotate(-20 29.3 24.7)"
  />
  <circle cx="30.1" cy="22.8" r="0.8" fill="#ffffff" />
</svg>
